# xmcd
# 
# Track frame offsets:
#     150
#     22312
#     43595
#     63180
#     91690
#     104250
#     123950
#     152787
#     169252
#     194627
#     207732
#     230685
# 
# Disc length: 3251
# 
# Revision: 2
# Processed by: cddbd v1.5.2PL0 Copyright (c) Steve Scherf et al.
# Submitted via: BonkEnc v1.0.8
# 
DISCID=a90cb10c
DTITLE=Otis Rush - Troubles, Troubles
DYEAR=1978
DGENRE=Blues
TTITLE0=Baby What You Want Me To Do?
TTITLE1=Little Red Rooster
TTITLE2=Whole Lotta Lovin'
TTITLE3=Gotta Be Some Changes Made
TTITLE4=You Been An Angel
TTITLE5=You Don't Have To Go
TTITLE6=Troubles, Troubles, Troubles
TTITLE7=Miss You So
TTITLE8=Hold Your Train
TTITLE9=Same Old Blues
TTITLE10=You Been An Angel - Alternate take
TTITLE11=Same Old Blues - Alternate take
EXTD=Recorded in Stickholm by Sonet Records in 1877, this is a 2005 re-mastered re-release.
EXTT0=
EXTT1=
EXTT2=
EXTT3=
EXTT4=
EXTT5=
EXTT6=
EXTT7=
EXTT8=
EXTT9=
EXTT10=
EXTT11=
PLAYORDER=
